PathFileType	4	(X/Y/Z)	RBDS024\RBDS024runT35.trc
DataRate	CameraRate	NumFrames	NumMarkers	Units	OrigDataRate	OrigDataStartFrame	OrigNumFrames
150.000000	150.000000	6	33	mm	150.000000	3937	4500
Frame#	Time	L.ASIS			L.Heel.Bottom			L.Heel.Lateral			L.Heel.Top			L.Iliac.Crest			L.MT1			L.MT5			L.PSIS			L.Shank.Bottom.Lateral			L.Shank.Bottom.Medial			L.Shank.Top.Lateral			L.Shank.Top.Medial			L.Thigh.Bottom.Lateral			L.Thigh.Bottom.Medial			L.Thigh.Top.Lateral			L.Thigh.Top.Medial			R.ASIS			R.ASY			R.Heel.Bottom			R.Heel.Lateral			R.Heel.Top			R.Iliac.Crest			R.MT1			R.MT5			R.PSIS			R.Shank.Bottom.Lateral			R.Shank.Bottom.Medial			R.Shank.Top.Lateral			R.Shank.Top.Medial			R.Thigh.Bottom.Lateral			R.Thigh.Bottom.Medial			R.Thigh.Top.Lateral			R.Thigh.Top.Medial			
		X1	Y1	Z1	X2	Y2	Z2	X3	Y3	Z3	X4	Y4	Z4	X5	Y5	Z5	X6	Y6	Z6	X7	Y7	Z7	X8	Y8	Z8	X9	Y9	Z9	X10	Y10	Z10	X11	Y11	Z11	X12	Y12	Z12	X13	Y13	Z13	X14	Y14	Z14	X15	Y15	Z15	X16	Y16	Z16	X17	Y17	Z17	X18	Y18	Z18	X19	Y19	Z19	X20	Y20	Z20	X21	Y21	Z21	X22	Y22	Z22	X23	Y23	Z23	X24	Y24	Z24	X25	Y25	Z25	X26	Y26	Z26	X27	Y27	Z27	X28	Y28	Z28	X29	Y29	Z29	X30	Y30	Z30	X31	Y31	Z31	X32	Y32	Z32	X33	Y33	Z33	

3938	26.24666666666667	2090.68644991998	1026.940357680108	951.8251559115132	2093.902835003158	119.6594551455997	1033.891412984668	2115.575261855367	130.8920087610387	987.6251676645114	2108.589904611559	161.7860643042598	1029.287686143402	1999.93977303357	1108.244628787933	895.468139510477	2317.972865450941	100.7991971705685	1053.178614663489	2272.501155398631	89.34222230999364	945.3590726315903	1914.177540787534	1068.952847015006	1001.368934229193	2177.016918953255	248.9505623153293	959.2293565373221	2135.662053283567	255.6760425938183	988.2244513495075	2177.460140347618	326.872035334384	936.6345777955487	2135.569561770614	337.9146350436031	967.3933133589579	2164.94387930896	687.1934928888687	893.6969612141522	2113.957581402144	652.1317945493875	929.2619706277833	2093.150430344186	768.936565861241	875.5355792347942	2044.16047459095	736.2716420506683	909.7013559580487	2082.248704498844	1005.288947802546	1177.650943306327	1544.865924973312	147.9041312603009	1117.804047386927	1431.406716704719	296.3998162714237	1068.291137996187	1443.106044855266	273.3351940554349	1120.214407176905	1470.999914449012	306.6200392771453	1084.998808752953	2040.667160628324	1085.402069658714	1221.184339286813	1538.410503756271	104.448731768899	1055.69758549965	1482.972746159184	119.525142834934	1155.55061148606	1918.245657525246	1069.468269288725	1106.96461313156	1543.40247654108	330.3183635351885	1156.162304062832	1529.679280649551	353.9474979910694	1108.039107280587	1587.181705705489	396.7425220134648	1174.456260324262	1572.564198886564	418.9974874794145	1127.667091096594	1832.920275626796	686.2252837640672	1217.003898738946	1789.65842429482	708.952822779301	1162.481162078494	1867.091927998342	789.7385903344783	1228.386497348582	1827.944417205718	810.5675337007525	1174.692579613665	
3939	26.25333333333333	2091.124692778452	1027.575985593823	951.35331042656	2118.670544740762	108.5406172507633	1034.498191574992	2139.606026426831	121.0872803861069	988.1727839966558	2130.386933244634	151.4645938987452	1029.658204161649	2000.245456978294	1109.541477002707	895.6550811931394	2343.110269899559	105.6069517506138	1054.335082281938	2299.027647031688	90.43433428039955	946.4570831884918	1915.442721621744	1071.220055700176	1001.746212184707	2192.83970338434	243.5556174093241	959.20137242774	2151.14485391083	247.6798355572624	988.1767253446083	2188.37800418522	321.0827729907114	936.2073955940134	2145.875057933963	329.5869864734399	966.8159034277622	2159.791966921433	684.3647965178745	893.4036066275457	2108.556220653355	650.6258404578876	929.6045352274468	2089.634309125347	767.5775347267174	875.4166302749375	2040.490103817589	736.2536584841329	910.3226356180685	2083.640629987345	1007.416620079446	1177.277872681062	1533.832683060282	158.7844851571822	1117.730950561237	1424.607055204839	310.574206400174	1068.210742723223	1435.713937452666	287.1983519952029	1120.19293427759	1464.599125244856	319.5614176143408	1084.776556530007	2042.834112484796	1088.7880018861	1220.690127831477	1526.13643980467	115.2876706867265	1055.77633301559	1471.322127631686	132.0198698298535	1155.520593935724	1919.781066274772	1072.479774246757	1107.406886219989	1537.721300954498	340.3886814553612	1156.04228300231	1524.44326837216	364.7386294461185	1108.192533399751	1583.517372273758	405.3479054418366	1174.457873878142	1569.347004535565	428.3304776938796	1127.922201268526	1835.384087122815	687.7466487787883	1217.507627036124	1791.161830361557	710.995161850132	1164.049504582478	1869.779774515433	791.0645005082301	1229.514504511947	1829.588087799997	812.4485993571267	1176.938995494015	
3940	26.26	2091.533167782152	1027.724695703533	950.8944639319342	2142.486919701695	98.84326846123317	1035.165989786993	2162.720912963454	112.5646918844784	988.7889518903329	2151.216508400494	142.3517684824471	1030.024494080334	2000.54285030625	1110.125474878971	895.7959536310724	2366.27232411845	111.7364764209041	1055.681769136834	2323.962984932227	92.75695884193374	947.7497032899264	1916.500436388609	1072.854943676172	1002.099487244587	2207.610527792273	239.0002152019057	959.2117017703703	2165.706950193347	240.5788967597032	988.1840738496547	2198.368870719503	315.8527274646028	935.8127652442688	2155.426293755496	321.8499292305002	966.2961147656878	2154.208720173044	681.0036745865864	892.7917047884627	2102.921314712199	648.7666271757832	929.972942079274	2085.732450195509	765.6814282384589	875.0308252533571	2036.617893872348	735.8602628030327	910.9990942596203	2084.911282674943	1009.195101022464	1176.962381156292	1523.547093471495	170.2671476653259	1117.114644114776	1417.752046938304	324.6705652659549	1068.405000193311	1428.660550364318	301.0617670474034	1120.348875177266	1458.116820897612	332.5995926753531	1084.549899852831	2044.550724788839	1091.854934578218	1220.157163128838	1514.416970625263	126.8443152608053	1055.310633872917	1460.834579329156	144.9428321751292	1155.406103923126	1921.089856268876	1074.854479902387	1107.819391910651	1532.596894690847	350.6063187351805	1155.774797465318	1519.735395547863	375.8616891668385	1108.313249447493	1580.578858679996	413.867869385431	1174.375051552483	1566.841827290566	437.7488126666215	1128.200149767277	1838.727980675336	688.2449835887918	1218.038494938842	1793.345364430492	712.0155374884008	1165.811671978032	1873.145715732014	791.4144962821834	1230.816885711964	1831.654726453435	813.3680367007163	1179.58881543741	
3941	26.26666666666667	2091.909031935311	1027.449902931035	950.4664671836488	2164.942043921499	90.55526627776986	1035.914041990129	2184.526633486975	105.2750893472637	989.4880441993345	2170.730073298443	134.4448928317026	1030.394505769403	2000.836913141623	1110.040355629166	895.9048270893102	2387.178568047847	118.8708131491426	1057.159417626073	2346.956504785122	95.99869821802879	949.2107279140725	1917.338256379843	1073.828423554482	1002.459873731277	2221.078890429183	235.2280920238703	959.2717061360694	2179.108968620243	234.3733171911031	988.2915997224618	2207.243362330464	311.1878806931393	935.4880663248375	2164.050365164655	314.7575652303132	965.9164339649664	2148.320210155157	677.264138764433	891.9228735475746	2097.163930361905	646.6543075146817	930.3729379468999	2081.530398355255	763.3642920484067	874.4316558987636	2032.616173887262	735.1532510935722	911.7291996246073	2086.110754956234	1010.579327925671	1176.705521870477	1514.034247828204	182.1864306743896	1116.024992291172	1411.079938337431	338.7744725091122	1068.859723678613	1422.093873548359	314.9345850035436	1120.669400096743	1451.805366181109	345.752363137933	1084.353064041283	2045.831802032864	1094.528339518542	1219.611535787263	1503.284676578914	138.9870162826421	1054.357056332659	1451.420218911244	158.1539205127741	1155.191766355155	1922.192334719404	1076.524679226233	1108.226284999477	1528.129826008271	360.9055592764441	1155.417964129996	1515.676888560523	387.2083046517317	1108.434434437843	1578.415618021871	422.2583469533507	1174.236197121598	1565.109266508006	447.168668565881	1128.510225118735	1842.818925582495	687.7710816914827	1218.557649023066	1796.146772499399	712.0361340904077	1167.658167138934	1877.071757102386	790.8458040550044	1232.21044631128	1834.127205283236	813.3458565093561	1182.468389054427	
3942	26.27333333333333	2092.240870647557	1026.81287537533	950.0815040123831	2185.612827005609	83.60410791565114	1036.759262883287	2204.60996380185	99.11377730373549	990.2793763513241	2188.575166854474	127.6902483170387	1030.777966100269	2001.117597493071	1109.344727816729	895.9980275020605	2405.592443311484	126.5906160805081	1058.682404202408	2367.667557135772	99.75919964356476	950.7917275946163	1917.947662595391	1074.126982572839	1002.86143153774	2233.005795040192	232.1345747345504	959.3858832569387	2191.120985159162	229.0193567996037	988.5380385807223	2214.832193092739	307.0559158575801	935.2666863768213	2171.588698763952	308.334380600713	965.7522322109088	2142.278696592769	673.3049875877863	890.8952563611315	2091.39923283461	644.3752258003116	930.8082627999369	2077.139589147504	760.7506279302905	873.7065673514924	2028.562348805843	734.1868327023975	912.5101669127488	2087.279630716951	1011.526807177357	1176.505375540569	1505.310981537848	194.3801093609891	1114.570232508549	1404.893007690412	352.9642512979338	1069.523037344679	1416.192814123144	328.8333232848533	1121.111971984102	1445.968469531956	359.0241317752013	1084.205044438729	2046.697800510343	1096.729618955664	1219.088113760805	1492.789139042956	151.5728133487009	1053.016115843552	1442.966187015304	171.5438212326952	1154.86690853764	1923.112107766457	1077.436273404935	1108.65734008765	1524.434875026659	371.2088887256776	1155.029361437493	1512.408177156996	398.6512059671754	1108.584530319713	1577.091372625813	430.4656960440876	1174.072075474345	1564.229829118806	456.4903404977985	1128.858893457497	1847.51715162494	686.3843682062219	1219.023572324256	1799.498927405435	711.080633866791	1169.473671556974	1881.424029639013	789.4255938390216	1233.599904787848	1836.97429125527	812.4047156918112	1185.386301157833	
3943	26.28	2092.511718485835	1025.871271228417	949.7446729669686	2204.080931391413	77.85649864950685	1037.714567394393	2222.555950266599	93.9222346444499	991.1662664687481	2204.409559875269	121.9819556523633	1031.18537228322	2001.359902310186	1108.10774997729	896.0934488759559	2421.331146368417	134.3915108265267	1060.146393998644	2385.778632271146	103.5710671881197	952.4247640374525	1918.325195281146	1073.7532731381	1003.337931200852	2243.176615653307	229.5703922828877	959.5504318184397	2201.531187653409	224.4274937684474	988.9492379275	2220.996686026378	303.3864784645885	935.1731863255607	2177.903173244314	302.5708725314875	965.8609045212747	2136.256467162222	669.2780057829567	889.8305514507225	2085.745780163663	641.9975595839942	931.2802141055349	2072.693010823198	757.9638119977026	872.9655799381818	2024.539626766216	733.0052234771083	913.3382670324506	2088.444067745497	1012.000798069297	1176.357887794744	1497.389119898934	206.6998334177691	1112.885535129208	1399.523957633011	367.2953924789799	1070.313091324909	1411.151115315494	342.7737896538231	1121.611050920014	1440.928587359293	372.4000318413629	1084.109770367606	2047.175730657792	1098.378551313659	1218.629863685542	1482.99364945177	164.4556611527572	1051.421073711341	1435.35585515611	185.0384922283876	1154.430400076608	1923.873529986076	1077.552188186109	1109.145911499597	1521.628854071446	381.4345946138266	1154.658493002176	1510.076042752987	410.0545328789494	1108.780432276156	1576.674973443127	438.4322478114693	1173.910900983247	1564.295312841675	465.6060653172289	1129.245062321104	1852.686486613874	684.1458211590785	1219.396115132904	1803.335823004516	709.1717103297195	1171.145424951216	1886.063869464288	787.2228816923952	1234.887818600952	1840.151683975252	810.5679605809814	1188.151700776758	
